HIERARCHY
ROOT Hips
{
    OFFSET 0.000000 0.000000 0.000000
    CHANNELS 6 Xposition Yposition Zposition Zrotation Xrotation Yrotation
    JOINT Spine
    {
        OFFSET -0.000000 7.305679 0.000000
        CHANNELS 3 Zrotation Xrotation Yrotation
        JOINT Spine1
        {
            OFFSET -0.000000 20.356625 0.000000
            CHANNELS 3 Zrotation Xrotation Yrotation
            JOINT Neck
            {
                OFFSET -0.000000 22.138498 0.000000
                CHANNELS 3 Zrotation Xrotation Yrotation
                JOINT Head
                {
                    OFFSET -0.000000 13.809516 1.781873
                    CHANNELS 3 Zrotation Xrotation Yrotation
                    End Site
                    {
                        OFFSET -0.000000 17.818729 0.000000
                    }
                }
            }
            JOINT LeftShoulder
            {
                OFFSET 3.599131 17.989975 0.023592
                CHANNELS 3 Zrotation Xrotation Yrotation
                JOINT LeftArm
                {
                    OFFSET 12.560995 0.000000 0.000000
                    CHANNELS 3 Zrotation Xrotation Yrotation
                    JOINT LeftForeArm
                    {
                        OFFSET 22.903347 0.000000 0.000000
                        CHANNELS 3 Zrotation Xrotation Yrotation
                        JOINT LeftHand
                        {
                            OFFSET 21.865294 0.000000 0.000000
                            CHANNELS 3 Zrotation Xrotation Yrotation
                            JOINT LeftHandThumb1
                            {
                                OFFSET 1.853706 -2.106484 2.949078
                                CHANNELS 3 Zrotation Xrotation Yrotation
                                JOINT LeftHandThumb2
                                {
                                    OFFSET 2.049154 0.000000 1.336405
                                    CHANNELS 3 Zrotation Xrotation Yrotation
                                    JOINT LeftHandThumb3
                                    {
                                        OFFSET 2.672809 0.000000 0.000000
                                        CHANNELS 3 Zrotation Xrotation Yrotation
                                        End Site
                                        {
                                            OFFSET 2.381303 0.000000 0.000000
                                        }
                                    }
                                }
                            }
                            JOINT LeftHandIndex1
                            {
                                OFFSET 7.583345 0.000000 2.949078
                                CHANNELS 3 Zrotation Xrotation Yrotation
                                JOINT LeftHandIndex2
                                {
                                    OFFSET 4.454682 0.000000 0.000000
                                    CHANNELS 3 Zrotation Xrotation Yrotation
                                    JOINT LeftHandIndex3
                                    {
                                        OFFSET 2.227341 0.000000 0.000000
                                        CHANNELS 3 Zrotation Xrotation Yrotation
                                        End Site
                                        {
                                            OFFSET 1.984419 0.000000 0.000000
                                        }
                                    }
                                }
                            }
                            JOINT LeftHandMiddle1
                            {
                                OFFSET 7.583345 0.000000 0.977409
                                CHANNELS 3 Zrotation Xrotation Yrotation
                                JOINT LeftHandMiddle2
                                {
                                    OFFSET 4.900151 0.000000 0.000000
                                    CHANNELS 3 Zrotation Xrotation Yrotation
                                    JOINT LeftHandMiddle3
                                    {
                                        OFFSET 2.672809 0.000000 0.000000
                                        CHANNELS 3 Zrotation Xrotation Yrotation
                                        End Site
                                        {
                                            OFFSET 2.381303 0.000000 0.000000
                                        }
                                    }
                                }
                            }
                            JOINT LeftHandRing1
                            {
                                OFFSET 7.162047 0.000000 -0.977409
                                CHANNELS 3 Zrotation Xrotation Yrotation
                                JOINT LeftHandRing2
                                {
                                    OFFSET 4.454682 0.000000 0.000000
                                    CHANNELS 3 Zrotation Xrotation Yrotation
                                    JOINT LeftHandRing3
                                    {
                                        OFFSET 2.227341 0.000000 0.000000
                                        CHANNELS 3 Zrotation Xrotation Yrotation
                                        End Site
                                        {
                                            OFFSET 1.984419 0.000000 0.000000
                                        }
                                    }
                                }
                            }
                            JOINT LeftHandPinky1
                            {
                                OFFSET 6.740750 0.000000 -2.949078
                                CHANNELS 3 Zrotation Xrotation Yrotation
                                JOINT LeftHandPinky2
                                {
                                    OFFSET 3.563746 0.000000 0.000000
                                    CHANNELS 3 Zrotation Xrotation Yrotation
                                    JOINT LeftHandPinky3
                                    {
                                        OFFSET 1.781873 0.000000 0.000000
                                        CHANNELS 3 Zrotation Xrotation Yrotation
                                        End Site
                                        {
                                            OFFSET 1.587536 0.000000 0.000000
                                        }
                                    }
                                }
                            }
                        }
                    }
                }
            }
            JOINT RightShoulder
            {
                OFFSET -3.506995 17.989975 0.023592
                CHANNELS 3 Zrotation Xrotation Yrotation
                JOINT RightArm
                {
                    OFFSET -12.560995 0.000000 0.000000
                    CHANNELS 3 Zrotation Xrotation Yrotation
                    JOINT RightForeArm
                    {
                        OFFSET -22.903347 0.000000 0.000000
                        CHANNELS 3 Zrotation Xrotation Yrotation
                        JOINT RightHand
                        {
                            OFFSET -21.865294 0.000000 0.000000
                            CHANNELS 3 Zrotation Xrotation Yrotation
                            JOINT RightHandThumb1
                            {
                                OFFSET -1.853706 -2.106484 2.949078
                                CHANNELS 3 Zrotation Xrotation Yrotation
                                JOINT RightHandThumb2
                                {
                                    OFFSET -2.049154 0.000000 1.336405
                                    CHANNELS 3 Zrotation Xrotation Yrotation
                                    JOINT RightHandThumb3
                                    {
                                        OFFSET -2.672809 0.000000 0.000000
                                        CHANNELS 3 Zrotation Xrotation Yrotation
                                        End Site
                                        {
                                            OFFSET -2.381303 0.000000 0.000000
                                        }
                                    }
                                }
                            }
                            JOINT RightHandIndex1
                            {
                                OFFSET -7.583345 0.000000 2.949078
                                CHANNELS 3 Zrotation Xrotation Yrotation
                                JOINT RightHandIndex2
                                {
                                    OFFSET -4.454682 0.000000 0.000000
                                    CHANNELS 3 Zrotation Xrotation Yrotation
                                    JOINT RightHandIndex3
                                    {
                                        OFFSET -2.227341 0.000000 0.000000
                                        CHANNELS 3 Zrotation Xrotation Yrotation
                                        End Site
                                        {
                                            OFFSET -1.984419 0.000000 0.000000
                                        }
                                    }
                                }
                            }
                            JOINT RightHandMiddle1
                            {
                                OFFSET -7.583345 0.000000 0.977409
                                CHANNELS 3 Zrotation Xrotation Yrotation
                                JOINT RightHandMiddle2
                                {
                                    OFFSET -4.900151 0.000000 0.000000
                                    CHANNELS 3 Zrotation Xrotation Yrotation
                                    JOINT RightHandMiddle3
                                    {
                                        OFFSET -2.672809 0.000000 0.000000
                                        CHANNELS 3 Zrotation Xrotation Yrotation
                                        End Site
                                        {
                                            OFFSET -2.381303 0.000000 0.000000
                                        }
                                    }
                                }
                            }
                            JOINT RightHandRing1
                            {
                                OFFSET -7.162047 0.000000 -0.977409
                                CHANNELS 3 Zrotation Xrotation Yrotation
                                JOINT RightHandRing2
                                {
                                    OFFSET -4.454682 0.000000 0.000000
                                    CHANNELS 3 Zrotation Xrotation Yrotation
                                    JOINT RightHandRing3
                                    {
                                        OFFSET -2.227341 0.000000 0.000000
                                        CHANNELS 3 Zrotation Xrotation Yrotation
                                        End Site
                                        {
                                            OFFSET -1.984419 0.000000 0.000000
                                        }
                                    }
                                }
                            }
                            JOINT RightHandPinky1
                            {
                                OFFSET -6.740750 0.000000 -2.949078
                                CHANNELS 3 Zrotation Xrotation Yrotation
                                JOINT RightHandPinky2
                                {
                                    OFFSET -3.563746 0.000000 0.000000
                                    CHANNELS 3 Zrotation Xrotation Yrotation
                                    JOINT RightHandPinky3
                                    {
                                        OFFSET -1.781873 0.000000 0.000000
                                        CHANNELS 3 Zrotation Xrotation Yrotation
                                        End Site
                                        {
                                            OFFSET -1.587536 0.000000 0.000000
                                        }
                                    }
                                }
                            }
                        }
                    }
                }
            }
        }
    }
    JOINT LeftUpLeg
    {
        OFFSET 8.909365 0.000000 0.000000
        CHANNELS 3 Zrotation Xrotation Yrotation
        JOINT LeftLeg
        {
            OFFSET -0.000000 -38.765560 0.000000
            CHANNELS 3 Zrotation Xrotation Yrotation
            JOINT LeftFoot
            {
                OFFSET -0.000000 -35.244961 0.000000
                CHANNELS 3 Zrotation Xrotation Yrotation
                JOINT LeftToeBase
                {
                    OFFSET -0.000000 -5.791087 13.364048
                    CHANNELS 3 Zrotation Xrotation Yrotation
                    End Site
                    {
                        OFFSET -0.000000 0.000000 3.563746
                    }
                }
            }
        }
    }
    JOINT RightUpLeg
    {
        OFFSET -8.909365 0.000000 0.000000
        CHANNELS 3 Zrotation Xrotation Yrotation
        JOINT RightLeg
        {
            OFFSET -0.000000 -38.765560 0.000000
            CHANNELS 3 Zrotation Xrotation Yrotation
            JOINT RightFoot
            {
                OFFSET -0.000000 -35.244961 0.000000
                CHANNELS 3 Zrotation Xrotation Yrotation
                JOINT RightToeBase
                {
                    OFFSET -0.000000 -5.791087 13.364048
                    CHANNELS 3 Zrotation Xrotation Yrotation
                    End Site
                    {
                        OFFSET -0.000000 0.000000 3.563746
                    }
                }
            }
        }
    }
}
MOTION
Frames:    4
Frame Time:    0.008333
-27.668423    76.873108    118.291565    -0.336591    -5.913042    3.872677    -1.681039    11.207391    0.136082    11.740804    23.364138    -2.452068    -0.385809    -11.598308    -3.769885    -1.521936    -13.593155    -3.893618    17.111687    -1.888703    -16.676258    -88.582809    54.274681    21.319193    59.080223    9.784596    -78.981010    27.082653    -21.127865    -17.197319    -8.552876    10.890016    3.986902    -0.000000    0.000000    5.804867    -0.000000    0.000000    11.609734    45.000004    0.000000    -0.000000    0.000000    0.000000    0.000000    0.000000    0.000000    0.000000    25.204182    0.602840    7.076839    -10.215773    0.000000    0.000000    -5.107887    0.000000    0.000000    5.482958    -1.225069    13.940319    -20.431545    0.000000    0.000000    -10.215773    0.000000    0.000000    -14.527622    -5.399837    19.958822    -30.956884    0.000000    0.000000    -15.478441    0.000000    0.000000    -10.694947    -0.856708    7.256676    76.887444    72.136398    -28.987223    -86.183632    12.268586    67.650620    -58.128452    -50.080360    19.237125    6.204605    0.609539    3.301343    0.000000    0.000000    0.000000    0.000000    0.000000    0.000000    -16.992844    0.000000    0.000000    0.000000    0.000000    0.000000    0.000000    0.000000    0.000000    -7.246913    -0.326517    -6.641853    8.493858    0.000000    -0.000000    4.246930    0.000000    -0.000000    2.399142    -1.768172    -13.134793    16.987713    0.000000    -0.000000    8.493856    0.000000    -0.000000    12.120743    -4.358370    -19.486727    25.738960    0.000000    -0.000000    12.869479    0.000000    -0.000000    -2.470357    -13.327063    -12.228843    1.205428    43.979107    -7.477223    -3.907572    -24.355799    -5.568197    0.197551    -1.289071    -0.661478    -16.585367    -30.591862    -5.841905    -2.070339    70.669312    -9.855128    0.183981    4.168117    1.053213    -0.146007    -1.838959    0.043064    
-27.519407    77.049057    117.964134    0.128127    -5.315601    4.404714    -1.281116    11.779220    0.347177    10.951379    22.537184    -2.123263    -0.584956    -12.464533    -4.209917    -1.451007    -13.378426    -4.347502    16.874409    -1.371430    -16.074003    -88.490456    53.790955    21.947136    59.727570    8.822465    -79.325592    26.143696    -20.744469    -17.657616    -8.753781    11.006082    3.899526    -0.000000    0.000000    5.781199    -0.000000    0.000000    11.562397    45.000004    0.000000    -0.000000    0.000000    0.000000    0.000000    0.000000    0.000000    0.000000    24.985893    0.546868    7.073373    -10.662380    0.000000    0.000000    -5.331191    0.000000    0.000000    5.054044    -1.358151    13.907678    -21.324764    0.000000    0.000000    -10.662378    0.000000    0.000000    -15.170794    -5.619327    19.856058    -32.310246    0.000000    0.000000    -16.155119    0.000000    0.000000    -10.756718    -0.959816    6.946238    79.894409    72.487457    -30.917521    -85.713768    13.257455    67.294472    -58.931652    -50.382557    19.020914    6.209702    0.644556    3.243284    0.000000    0.000000    0.000000    0.000000    0.000000    0.000000    -17.060383    0.000000    0.000000    0.000000    0.000000    0.000000    0.000000    0.000000    0.000000    -7.261268    -0.332337    -6.661061    8.558471    0.000000    -0.000000    4.279236    0.000000    -0.000000    2.436552    -1.788942    -13.170653    17.116943    0.000000    -0.000000    8.558471    0.000000    -0.000000    12.209085    -4.402907    -19.534742    25.934759    0.000000    -0.000000    12.967381    0.000000    -0.000000    -2.791282    -13.806890    -12.247959    0.880692    43.083546    -6.864633    -4.430833    -23.850983    -5.816787    0.185280    -1.498292    -0.658973    -17.240465    -31.859428    -6.406370    2.613357    71.112801    -14.759943    0.249156    3.646087    1.303835    -0.133941    -1.815435    0.026252    
-27.393522    77.242432    117.657043    0.507837    -4.677628    4.915656    -0.825827    12.290770    0.513136    10.176853    21.677420    -1.818541    -0.833073    -13.197268    -4.633966    -1.346440    -13.227625    -4.784818    16.570665    -0.782891    -15.423875    -88.309975    53.207249    22.476009    60.354488    7.901829    -79.629494    25.289284    -20.364006    -18.146606    -8.959909    11.113862    3.790736    -0.000000    0.000000    5.736365    -0.000000    0.000000    11.472730    45.000004    0.000000    -0.000000    0.000000    0.000000    0.000000    0.000000    0.000000    0.000000    24.795431    0.498197    7.071465    -11.052179    0.000000    0.000000    -5.526091    0.000000    0.000000    4.679715    -1.474177    13.881028    -22.104362    0.000000    0.000000    -11.052180    0.000000    0.000000    -15.732405    -5.810703    19.768436    -33.491455    0.000000    0.000000    -16.745728    0.000000    0.000000    -10.819892    -1.061644    6.646539    82.840935    72.753960    -32.763340    -85.153961    14.173345    66.893936    -59.446693    -50.763264    19.145412    6.227926    0.660165    3.229381    0.000000    0.000000    0.000000    0.000000    0.000000    0.000000    -17.119499    0.000000    0.000000    0.000000    0.000000    0.000000    0.000000    0.000000    0.000000    -7.252903    -0.343144    -6.689468    8.658681    0.000000    -0.000000    4.329341    0.000000    -0.000000    2.510109    -1.822796    -13.223565    17.317368    0.000000    -0.000000    8.658682    0.000000    -0.000000    12.346220    -4.471599    -19.605831    26.238428    0.000000    -0.000000    13.119214    0.000000    -0.000000    -2.986033    -14.279718    -12.122106    0.618083    42.137169    -6.194497    -4.990296    -23.382353    -6.086817    0.180973    -1.712138    -0.677516    -17.839453    -33.065773    -6.993598    7.785977    71.132202    -20.025927    0.378917    3.467925    1.303603    -0.127369    -1.794399    0.017955    
-27.286673    77.449593    117.371155    0.820569    -4.005138    5.410771    -0.324521    12.746947    0.632791    9.403989    20.792305    -1.536286    -1.113383    -13.816374    -5.039561    -1.213749    -13.133719    -5.202395    16.202324    -0.130425    -14.726482    -88.029755    52.523235    22.898735    60.970512    7.036800    -79.902603    24.532234    -19.991560    -18.663715    -9.171679    11.207628    3.650050    -0.000000    0.000000    5.655603    -0.000000    0.000000    11.311205    45.000004    0.000000    -0.000000    0.000000    0.000000    0.000000    0.000000    0.000000    0.000000    24.638563    0.458447    7.074961    -11.373737    0.000000    0.000000    -5.686868    0.000000    0.000000    4.371495    -1.570740    13.868761    -22.747477    0.000000    0.000000    -11.373734    0.000000    0.000000    -16.194595    -5.971984    19.709633    -34.465870    0.000000    0.000000    -17.232935    0.000000    0.000000    -10.874155    -1.139413    6.362366    85.623032    72.924454    -34.443310    -84.548492    14.998021    66.463158    -59.669376    -51.195110    19.575531    6.256820    0.655616    3.259165    0.000000    0.000000    0.000000    0.000000    0.000000    0.000000    -17.168715    0.000000    0.000000    0.000000    0.000000    0.000000    0.000000    0.000000    0.000000    -7.223820    -0.358161    -6.723489    8.788157    0.000000    -0.000000    4.394078    0.000000    -0.000000    2.614511    -1.867233    -13.286604    17.576313    0.000000    -0.000000    8.788156    0.000000    -0.000000    12.523767    -4.559279    -19.690046    26.630774    0.000000    -0.000000    13.315388    0.000000    -0.000000    -3.067238    -14.744638    -11.825981    0.406237    41.151066    -5.463856    -5.561634    -22.962278    -6.349945    0.185796    -1.928440    -0.720063    -18.389711    -34.121181    -7.635170    13.118911    70.765060    -25.381199    0.567971    3.498357    1.064561    -0.126001    -1.777406    0.017542    
